<svg width="30" height="33" viewBox="0 0 30 33" fill="none" xmlns="http://www.w3.org/2000/svg">
<circle cx="15" cy="18" r="15" fill="#DBA39A" fill-opacity="0.5"/>
<path d="M16.136 13.928V24.008L17.504 24.08V26H11.792V24.176L12.584 24.104C13.048 24.056 13.28 23.8 13.28 23.336V16.664C13.28 16.392 13.232 16.208 13.136 16.112C13.056 16.016 12.904 15.968 12.68 15.968L11.84 15.92V13.928H16.136ZM13.112 11.864C12.776 11.528 12.608 11.104 12.608 10.592C12.608 10.08 12.776 9.656 13.112 9.32C13.448 8.968 13.888 8.792 14.432 8.792C14.976 8.792 15.416 8.968 15.752 9.32C16.104 9.656 16.28 10.08 16.28 10.592C16.28 11.104 16.104 11.528 15.752 11.864C15.416 12.184 14.976 12.344 14.432 12.344C13.888 12.344 13.448 12.184 13.112 11.864Z" fill="#867070"/>
</svg>
