<svg width="338" height="168" viewBox="0 0 338 168" fill="none" xmlns="http://www.w3.org/2000/svg">
<path d="M217 68.8209C217 85.4884 187.675 99 151.5 99C115.325 99 86 85.4884 86 68.8209C86 52.1535 115.325 61.7477 151.5 61.7477C187.675 61.7477 217 52.1535 217 68.8209Z" fill="#AACFCF" fill-opacity="0.5"/>
<path d="M97.8553 65.75C69.8333 17.405 123.954 -15.039 148 11.5449" stroke="#39375B" stroke-opacity="0.6" stroke-width="3" stroke-linecap="round"/>
<path d="M100.973 70L106.389 39.2345C107.104 35.1695 112.479 34.1672 114.611 37.7009V37.7009C115.919 39.8674 118.707 40.348 121.097 39.5156C122.248 39.1146 123.242 38.9997 124.172 39.1295C126.871 39.5061 129.973 39.3738 131.245 36.9643V36.9643C133.041 33.5633 138.071 34.1087 139.097 37.8156L148 70" stroke="#8294C4" stroke-width="6" stroke-linecap="round"/>
<ellipse cx="129.83" cy="53.6072" rx="3.20639" ry="3.03571" fill="#8294C4"/>
<ellipse cx="117.005" cy="53.6072" rx="3.20639" ry="3.03571" fill="#8294C4"/>
<path d="M203.145 65.75C231.167 17.405 177.046 -15.039 153 11.5449" stroke="#39375B" stroke-opacity="0.6" stroke-width="3" stroke-linecap="round"/>
<path d="M154.568 70L159.983 39.2345C160.699 35.1695 166.073 34.1672 168.206 37.7009V37.7009C169.514 39.8674 172.302 40.348 174.691 39.5156C175.843 39.1146 176.837 38.9997 177.766 39.1295C180.465 39.5061 183.567 39.3738 184.84 36.9643V36.9643C186.636 33.5633 191.666 34.1087 192.691 37.8156L201.595 70" stroke="#8294C4" stroke-width="6" stroke-linecap="round"/>
<ellipse cx="183.425" cy="53.6072" rx="3.20639" ry="3.03571" fill="#8294C4"/>
<ellipse cx="170.6" cy="53.6072" rx="3.20639" ry="3.03571" fill="#8294C4"/>
<path d="M6.3777 141.206C5.3457 141.206 4.5297 140.906 3.9297 140.306C3.3297 139.706 3.0297 138.89 3.0297 137.858V119.246C3.2937 119.198 3.7137 119.138 4.2897 119.066C4.8657 118.97 5.4177 118.922 5.9457 118.922C6.4977 118.922 6.9777 118.97 7.3857 119.066C7.8177 119.138 8.1777 119.282 8.4657 119.498C8.7537 119.714 8.9697 120.014 9.1137 120.398C9.2577 120.782 9.3297 121.286 9.3297 121.91V136.13H17.5737C17.7417 136.394 17.8977 136.754 18.0417 137.21C18.1857 137.642 18.2577 138.098 18.2577 138.578C18.2577 139.538 18.0537 140.222 17.6457 140.63C17.2377 141.014 16.6977 141.206 16.0257 141.206H6.3777ZM20.8747 118.742C20.8747 117.83 21.1747 117.062 21.7747 116.438C22.3987 115.814 23.2147 115.502 24.2227 115.502C25.2307 115.502 26.0347 115.814 26.6347 116.438C27.2587 117.062 27.5707 117.83 27.5707 118.742C27.5707 119.654 27.2587 120.422 26.6347 121.046C26.0347 121.67 25.2307 121.982 24.2227 121.982C23.2147 121.982 22.3987 121.67 21.7747 121.046C21.1747 120.422 20.8747 119.654 20.8747 118.742ZM27.2827 141.062C27.0187 141.11 26.6227 141.17 26.0947 141.242C25.5907 141.338 25.0747 141.386 24.5467 141.386C24.0187 141.386 23.5387 141.35 23.1067 141.278C22.6987 141.206 22.3507 141.062 22.0627 140.846C21.7747 140.63 21.5467 140.342 21.3787 139.982C21.2347 139.598 21.1627 139.106 21.1627 138.506V123.854C21.4267 123.806 21.8107 123.746 22.3147 123.674C22.8427 123.578 23.3707 123.53 23.8987 123.53C24.4267 123.53 24.8947 123.566 25.3027 123.638C25.7347 123.71 26.0947 123.854 26.3827 124.07C26.6707 124.286 26.8867 124.586 27.0307 124.97C27.1987 125.33 27.2827 125.81 27.2827 126.41V141.062ZM42.2669 130.01C42.2669 129.266 42.0509 128.726 41.6189 128.39C41.2109 128.03 40.6469 127.85 39.9269 127.85C39.4469 127.85 38.9669 127.91 38.4869 128.03C38.0309 128.15 37.6349 128.33 37.2989 128.57V141.062C37.0589 141.134 36.6749 141.206 36.1469 141.278C35.6429 141.35 35.1149 141.386 34.5629 141.386C34.0349 141.386 33.5549 141.35 33.1229 141.278C32.7149 141.206 32.3669 141.062 32.0789 140.846C31.7909 140.63 31.5629 140.342 31.3949 139.982C31.2509 139.598 31.1789 139.106 31.1789 138.506V127.706C31.1789 127.058 31.3109 126.53 31.5749 126.122C31.8629 125.714 32.2469 125.342 32.7269 125.006C33.5429 124.43 34.5629 123.962 35.7869 123.602C37.0349 123.242 38.4149 123.062 39.9269 123.062C42.6389 123.062 44.7269 123.662 46.1909 124.862C47.6549 126.038 48.3869 127.682 48.3869 129.794V141.062C48.1469 141.134 47.7629 141.206 47.2349 141.278C46.7309 141.35 46.2029 141.386 45.6509 141.386C45.1229 141.386 44.6429 141.35 44.2109 141.278C43.8029 141.206 43.4549 141.062 43.1669 140.846C42.8789 140.63 42.6509 140.342 42.4829 139.982C42.3389 139.598 42.2669 139.106 42.2669 138.506V130.01ZM61.4192 141.674C60.0032 141.674 58.6832 141.482 57.4592 141.098C56.2592 140.69 55.2032 140.09 54.2912 139.298C53.4032 138.506 52.6952 137.51 52.1672 136.31C51.6632 135.11 51.4112 133.706 51.4112 132.098C51.4112 130.514 51.6632 129.158 52.1672 128.03C52.6952 126.878 53.3792 125.942 54.2192 125.222C55.0592 124.478 56.0192 123.938 57.0992 123.602C58.1792 123.242 59.2832 123.062 60.4112 123.062C61.6832 123.062 62.8352 123.254 63.8672 123.638C64.9232 124.022 65.8232 124.55 66.5672 125.222C67.3352 125.894 67.9232 126.698 68.3312 127.634C68.7632 128.57 68.9792 129.59 68.9792 130.694C68.9792 131.51 68.7512 132.134 68.2952 132.566C67.8392 132.998 67.2032 133.274 66.3872 133.394L57.4952 134.726C57.7592 135.518 58.2992 136.118 59.1152 136.526C59.9312 136.91 60.8672 137.102 61.9232 137.102C62.9072 137.102 63.8312 136.982 64.6952 136.742C65.5832 136.478 66.3032 136.178 66.8552 135.842C67.2392 136.082 67.5632 136.418 67.8272 136.85C68.0912 137.282 68.2232 137.738 68.2232 138.218C68.2232 139.298 67.7192 140.102 66.7112 140.63C65.9432 141.038 65.0792 141.314 64.1192 141.458C63.1592 141.602 62.2592 141.674 61.4192 141.674ZM60.4112 127.526C59.8352 127.526 59.3312 127.622 58.8992 127.814C58.4912 128.006 58.1552 128.258 57.8912 128.57C57.6272 128.858 57.4232 129.194 57.2792 129.578C57.1592 129.938 57.0872 130.31 57.0632 130.694L63.2192 129.686C63.1472 129.206 62.8832 128.726 62.4272 128.246C61.9712 127.766 61.2992 127.526 60.4112 127.526ZM79.413 137.21C79.821 137.21 80.265 137.174 80.745 137.102C81.249 137.006 81.621 136.886 81.861 136.742V133.862L79.269 134.078C78.597 134.126 78.045 134.27 77.613 134.51C77.181 134.75 76.965 135.11 76.965 135.59C76.965 136.07 77.145 136.466 77.505 136.778C77.889 137.066 78.525 137.21 79.413 137.21ZM79.125 123.062C80.421 123.062 81.597 123.194 82.653 123.458C83.733 123.722 84.645 124.13 85.389 124.682C86.157 125.21 86.745 125.894 87.153 126.734C87.561 127.55 87.765 128.522 87.765 129.65V137.714C87.765 138.338 87.585 138.854 87.225 139.262C86.889 139.646 86.481 139.982 86.001 140.27C84.441 141.206 82.245 141.674 79.413 141.674C78.141 141.674 76.989 141.554 75.957 141.314C74.949 141.074 74.073 140.714 73.329 140.234C72.609 139.754 72.045 139.142 71.637 138.398C71.253 137.654 71.061 136.79 71.061 135.806C71.061 134.15 71.553 132.878 72.537 131.99C73.521 131.102 75.045 130.55 77.109 130.334L81.825 129.83V129.578C81.825 128.882 81.513 128.39 80.889 128.102C80.289 127.79 79.413 127.634 78.261 127.634C77.349 127.634 76.461 127.73 75.597 127.922C74.733 128.114 73.953 128.354 73.257 128.642C72.945 128.426 72.681 128.102 72.465 127.67C72.249 127.214 72.141 126.746 72.141 126.266C72.141 125.642 72.285 125.15 72.573 124.79C72.885 124.406 73.353 124.082 73.977 123.818C74.673 123.554 75.489 123.362 76.425 123.242C77.385 123.122 78.285 123.062 79.125 123.062ZM97.627 141.062C97.387 141.134 97.003 141.206 96.475 141.278C95.971 141.35 95.443 141.386 94.891 141.386C94.363 141.386 93.883 141.35 93.451 141.278C93.043 141.206 92.695 141.062 92.407 140.846C92.119 140.63 91.891 140.342 91.723 139.982C91.579 139.598 91.507 139.106 91.507 138.506V127.706C91.507 127.154 91.603 126.686 91.795 126.302C92.011 125.894 92.311 125.534 92.695 125.222C93.079 124.91 93.547 124.634 94.099 124.394C94.675 124.13 95.287 123.902 95.935 123.71C96.583 123.518 97.255 123.374 97.951 123.278C98.647 123.158 99.343 123.098 100.039 123.098C101.191 123.098 102.103 123.326 102.775 123.782C103.447 124.214 103.783 124.934 103.783 125.942C103.783 126.278 103.735 126.614 103.639 126.95C103.543 127.262 103.423 127.55 103.279 127.814C102.775 127.814 102.259 127.838 101.731 127.886C101.203 127.934 100.687 128.006 100.183 128.102C99.679 128.198 99.199 128.306 98.743 128.426C98.311 128.522 97.939 128.642 97.627 128.786V141.062ZM122.155 129.398C123.163 129.398 123.931 129.17 124.459 128.714C125.011 128.234 125.287 127.514 125.287 126.554C125.287 125.642 124.999 124.946 124.423 124.466C123.871 123.962 123.055 123.71 121.975 123.71C121.591 123.71 121.267 123.722 121.003 123.746C120.763 123.746 120.511 123.77 120.247 123.818V129.398H122.155ZM120.283 140.954C120.019 141.026 119.599 141.098 119.023 141.17C118.471 141.242 117.919 141.278 117.367 141.278C116.815 141.278 116.323 141.23 115.891 141.134C115.483 141.062 115.135 140.918 114.847 140.702C114.559 140.486 114.343 140.186 114.199 139.802C114.055 139.418 113.983 138.914 113.983 138.29V121.334C113.983 120.83 114.115 120.446 114.379 120.182C114.667 119.894 115.051 119.666 115.531 119.498C116.347 119.21 117.271 119.006 118.303 118.886C119.359 118.742 120.415 118.67 121.471 118.67C124.783 118.67 127.315 119.378 129.067 120.794C130.819 122.21 131.695 124.13 131.695 126.554C131.695 127.73 131.503 128.798 131.119 129.758C130.759 130.694 130.207 131.51 129.463 132.206C128.743 132.878 127.819 133.406 126.691 133.79C125.587 134.15 124.303 134.33 122.839 134.33H120.283V140.954ZM139.85 141.062C139.61 141.134 139.226 141.206 138.698 141.278C138.194 141.35 137.666 141.386 137.114 141.386C136.586 141.386 136.106 141.35 135.674 141.278C135.266 141.206 134.918 141.062 134.63 140.846C134.342 140.63 134.114 140.342 133.946 139.982C133.802 139.598 133.73 139.106 133.73 138.506V127.706C133.73 127.154 133.826 126.686 134.018 126.302C134.234 125.894 134.534 125.534 134.918 125.222C135.302 124.91 135.77 124.634 136.322 124.394C136.898 124.13 137.51 123.902 138.158 123.71C138.806 123.518 139.478 123.374 140.174 123.278C140.87 123.158 141.566 123.098 142.262 123.098C143.414 123.098 144.326 123.326 144.998 123.782C145.67 124.214 146.006 124.934 146.006 125.942C146.006 126.278 145.958 126.614 145.862 126.95C145.766 127.262 145.646 127.55 145.502 127.814C144.998 127.814 144.482 127.838 143.954 127.886C143.426 127.934 142.91 128.006 142.406 128.102C141.902 128.198 141.422 128.306 140.966 128.426C140.534 128.522 140.162 128.642 139.85 128.786V141.062ZM165.97 132.35C165.97 133.838 165.742 135.17 165.286 136.346C164.83 137.498 164.182 138.47 163.342 139.262C162.526 140.054 161.542 140.654 160.39 141.062C159.238 141.47 157.954 141.674 156.538 141.674C155.122 141.674 153.838 141.458 152.686 141.026C151.534 140.594 150.538 139.982 149.698 139.19C148.882 138.374 148.246 137.39 147.79 136.238C147.334 135.086 147.106 133.79 147.106 132.35C147.106 130.934 147.334 129.65 147.79 128.498C148.246 127.346 148.882 126.374 149.698 125.582C150.538 124.766 151.534 124.142 152.686 123.71C153.838 123.278 155.122 123.062 156.538 123.062C157.954 123.062 159.238 123.29 160.39 123.746C161.542 124.178 162.526 124.802 163.342 125.618C164.182 126.41 164.83 127.382 165.286 128.534C165.742 129.686 165.97 130.958 165.97 132.35ZM153.37 132.35C153.37 133.814 153.646 134.942 154.198 135.734C154.774 136.502 155.566 136.886 156.574 136.886C157.582 136.886 158.35 136.49 158.878 135.698C159.43 134.906 159.706 133.79 159.706 132.35C159.706 130.91 159.43 129.806 158.878 129.038C158.326 128.246 157.546 127.85 156.538 127.85C155.53 127.85 154.75 128.246 154.198 129.038C153.646 129.806 153.37 130.91 153.37 132.35ZM177.488 123.062C178.856 123.062 180.092 123.242 181.196 123.602C182.324 123.938 183.272 124.382 184.04 124.934C184.52 125.27 184.892 125.642 185.156 126.05C185.444 126.458 185.588 126.986 185.588 127.634V140.234C185.588 141.506 185.348 142.598 184.868 143.51C184.388 144.446 183.728 145.214 182.888 145.814C182.072 146.438 181.1 146.894 179.972 147.182C178.868 147.47 177.68 147.614 176.408 147.614C174.224 147.614 172.508 147.314 171.26 146.714C170.012 146.138 169.388 145.19 169.388 143.87C169.388 143.318 169.496 142.826 169.712 142.394C169.952 141.986 170.216 141.674 170.504 141.458C171.2 141.842 171.98 142.166 172.844 142.43C173.732 142.694 174.644 142.826 175.58 142.826C176.876 142.826 177.908 142.61 178.676 142.178C179.444 141.746 179.828 141.05 179.828 140.09V139.514C178.844 139.946 177.644 140.162 176.228 140.162C175.148 140.162 174.116 140.006 173.132 139.694C172.172 139.358 171.32 138.854 170.576 138.182C169.856 137.486 169.268 136.598 168.812 135.518C168.38 134.438 168.164 133.154 168.164 131.666C168.164 130.202 168.392 128.93 168.848 127.85C169.328 126.77 169.976 125.882 170.792 125.186C171.632 124.466 172.616 123.938 173.744 123.602C174.896 123.242 176.144 123.062 177.488 123.062ZM179.72 128.282C179.552 128.186 179.3 128.09 178.964 127.994C178.652 127.898 178.256 127.85 177.776 127.85C176.6 127.85 175.712 128.186 175.112 128.858C174.536 129.506 174.248 130.442 174.248 131.666C174.248 133.058 174.536 134.066 175.112 134.69C175.712 135.29 176.468 135.59 177.38 135.59C178.364 135.59 179.144 135.362 179.72 134.906V128.282ZM195.502 141.062C195.262 141.134 194.878 141.206 194.35 141.278C193.846 141.35 193.318 141.386 192.766 141.386C192.238 141.386 191.758 141.35 191.326 141.278C190.918 141.206 190.57 141.062 190.282 140.846C189.994 140.63 189.766 140.342 189.598 139.982C189.454 139.598 189.382 139.106 189.382 138.506V127.706C189.382 127.154 189.478 126.686 189.67 126.302C189.886 125.894 190.186 125.534 190.57 125.222C190.954 124.91 191.422 124.634 191.974 124.394C192.55 124.13 193.162 123.902 193.81 123.71C194.458 123.518 195.13 123.374 195.826 123.278C196.522 123.158 197.218 123.098 197.914 123.098C199.066 123.098 199.978 123.326 200.65 123.782C201.322 124.214 201.658 124.934 201.658 125.942C201.658 126.278 201.61 126.614 201.514 126.95C201.418 127.262 201.298 127.55 201.154 127.814C200.65 127.814 200.134 127.838 199.606 127.886C199.078 127.934 198.562 128.006 198.058 128.102C197.554 128.198 197.074 128.306 196.618 128.426C196.186 128.522 195.814 128.642 195.502 128.786V141.062ZM211.143 137.21C211.551 137.21 211.995 137.174 212.475 137.102C212.979 137.006 213.351 136.886 213.591 136.742V133.862L210.999 134.078C210.327 134.126 209.775 134.27 209.343 134.51C208.911 134.75 208.695 135.11 208.695 135.59C208.695 136.07 208.875 136.466 209.235 136.778C209.619 137.066 210.255 137.21 211.143 137.21ZM210.855 123.062C212.151 123.062 213.327 123.194 214.383 123.458C215.463 123.722 216.375 124.13 217.119 124.682C217.887 125.21 218.475 125.894 218.883 126.734C219.291 127.55 219.495 128.522 219.495 129.65V137.714C219.495 138.338 219.315 138.854 218.955 139.262C218.619 139.646 218.211 139.982 217.731 140.27C216.171 141.206 213.975 141.674 211.143 141.674C209.871 141.674 208.719 141.554 207.687 141.314C206.679 141.074 205.803 140.714 205.059 140.234C204.339 139.754 203.775 139.142 203.367 138.398C202.983 137.654 202.791 136.79 202.791 135.806C202.791 134.15 203.283 132.878 204.267 131.99C205.251 131.102 206.775 130.55 208.839 130.334L213.555 129.83V129.578C213.555 128.882 213.243 128.39 212.619 128.102C212.019 127.79 211.143 127.634 209.991 127.634C209.079 127.634 208.191 127.73 207.327 127.922C206.463 128.114 205.683 128.354 204.987 128.642C204.675 128.426 204.411 128.102 204.195 127.67C203.979 127.214 203.871 126.746 203.871 126.266C203.871 125.642 204.015 125.15 204.303 124.79C204.615 124.406 205.083 124.082 205.707 123.818C206.403 123.554 207.219 123.362 208.155 123.242C209.115 123.122 210.015 123.062 210.855 123.062ZM231.625 123.062C232.609 123.062 233.569 123.206 234.505 123.494C235.465 123.758 236.293 124.166 236.989 124.718C237.709 124.238 238.513 123.842 239.401 123.53C240.313 123.218 241.405 123.062 242.677 123.062C243.589 123.062 244.477 123.182 245.341 123.422C246.229 123.662 247.009 124.046 247.681 124.574C248.377 125.078 248.929 125.762 249.337 126.626C249.745 127.466 249.949 128.498 249.949 129.722V141.062C249.709 141.134 249.325 141.206 248.797 141.278C248.293 141.35 247.765 141.386 247.213 141.386C246.685 141.386 246.205 141.35 245.773 141.278C245.365 141.206 245.017 141.062 244.729 140.846C244.441 140.63 244.213 140.342 244.045 139.982C243.901 139.598 243.829 139.106 243.829 138.506V129.902C243.829 129.182 243.625 128.666 243.217 128.354C242.809 128.018 242.257 127.85 241.561 127.85C241.225 127.85 240.865 127.934 240.481 128.102C240.097 128.246 239.809 128.402 239.617 128.57C239.641 128.666 239.653 128.762 239.653 128.858C239.653 128.93 239.653 129.002 239.653 129.074V141.062C239.389 141.134 238.993 141.206 238.465 141.278C237.961 141.35 237.445 141.386 236.917 141.386C236.389 141.386 235.909 141.35 235.477 141.278C235.069 141.206 234.721 141.062 234.433 140.846C234.145 140.63 233.917 140.342 233.749 139.982C233.605 139.598 233.533 139.106 233.533 138.506V129.902C233.533 129.182 233.305 128.666 232.849 128.354C232.417 128.018 231.889 127.85 231.265 127.85C230.833 127.85 230.461 127.922 230.149 128.066C229.837 128.186 229.573 128.306 229.357 128.426V141.062C229.117 141.134 228.733 141.206 228.205 141.278C227.701 141.35 227.173 141.386 226.621 141.386C226.093 141.386 225.613 141.35 225.181 141.278C224.773 141.206 224.425 141.062 224.137 140.846C223.849 140.63 223.621 140.342 223.453 139.982C223.309 139.598 223.237 139.106 223.237 138.506V127.634C223.237 126.986 223.369 126.47 223.633 126.086C223.921 125.702 224.305 125.342 224.785 125.006C225.601 124.43 226.609 123.962 227.809 123.602C229.033 123.242 230.305 123.062 231.625 123.062ZM262.071 123.062C263.055 123.062 264.015 123.206 264.951 123.494C265.911 123.758 266.739 124.166 267.435 124.718C268.155 124.238 268.959 123.842 269.847 123.53C270.759 123.218 271.851 123.062 273.123 123.062C274.035 123.062 274.923 123.182 275.787 123.422C276.675 123.662 277.455 124.046 278.127 124.574C278.823 125.078 279.375 125.762 279.783 126.626C280.191 127.466 280.395 128.498 280.395 129.722V141.062C280.155 141.134 279.771 141.206 279.243 141.278C278.739 141.35 278.211 141.386 277.659 141.386C277.131 141.386 276.651 141.35 276.219 141.278C275.811 141.206 275.463 141.062 275.175 140.846C274.887 140.63 274.659 140.342 274.491 139.982C274.347 139.598 274.275 139.106 274.275 138.506V129.902C274.275 129.182 274.071 128.666 273.663 128.354C273.255 128.018 272.703 127.85 272.007 127.85C271.671 127.85 271.311 127.934 270.927 128.102C270.543 128.246 270.255 128.402 270.063 128.57C270.087 128.666 270.099 128.762 270.099 128.858C270.099 128.93 270.099 129.002 270.099 129.074V141.062C269.835 141.134 269.439 141.206 268.911 141.278C268.407 141.35 267.891 141.386 267.363 141.386C266.835 141.386 266.355 141.35 265.923 141.278C265.515 141.206 265.167 141.062 264.879 140.846C264.591 140.63 264.363 140.342 264.195 139.982C264.051 139.598 263.979 139.106 263.979 138.506V129.902C263.979 129.182 263.751 128.666 263.295 128.354C262.863 128.018 262.335 127.85 261.711 127.85C261.279 127.85 260.907 127.922 260.595 128.066C260.283 128.186 260.019 128.306 259.803 128.426V141.062C259.563 141.134 259.179 141.206 258.651 141.278C258.147 141.35 257.619 141.386 257.067 141.386C256.539 141.386 256.059 141.35 255.627 141.278C255.219 141.206 254.871 141.062 254.583 140.846C254.295 140.63 254.067 140.342 253.899 139.982C253.755 139.598 253.683 139.106 253.683 138.506V127.634C253.683 126.986 253.815 126.47 254.079 126.086C254.367 125.702 254.751 125.342 255.231 125.006C256.047 124.43 257.055 123.962 258.255 123.602C259.479 123.242 260.751 123.062 262.071 123.062ZM283.984 118.742C283.984 117.83 284.284 117.062 284.884 116.438C285.508 115.814 286.324 115.502 287.332 115.502C288.34 115.502 289.144 115.814 289.744 116.438C290.368 117.062 290.68 117.83 290.68 118.742C290.68 119.654 290.368 120.422 289.744 121.046C289.144 121.67 288.34 121.982 287.332 121.982C286.324 121.982 285.508 121.67 284.884 121.046C284.284 120.422 283.984 119.654 283.984 118.742ZM290.392 141.062C290.128 141.11 289.732 141.17 289.204 141.242C288.7 141.338 288.184 141.386 287.656 141.386C287.128 141.386 286.648 141.35 286.216 141.278C285.808 141.206 285.46 141.062 285.172 140.846C284.884 140.63 284.656 140.342 284.488 139.982C284.344 139.598 284.272 139.106 284.272 138.506V123.854C284.536 123.806 284.92 123.746 285.424 123.674C285.952 123.578 286.48 123.53 287.008 123.53C287.536 123.53 288.004 123.566 288.412 123.638C288.844 123.71 289.204 123.854 289.492 124.07C289.78 124.286 289.996 124.586 290.14 124.97C290.308 125.33 290.392 125.81 290.392 126.41V141.062ZM305.376 130.01C305.376 129.266 305.16 128.726 304.728 128.39C304.32 128.03 303.756 127.85 303.036 127.85C302.556 127.85 302.076 127.91 301.596 128.03C301.14 128.15 300.744 128.33 300.408 128.57V141.062C300.168 141.134 299.784 141.206 299.256 141.278C298.752 141.35 298.224 141.386 297.672 141.386C297.144 141.386 296.664 141.35 296.232 141.278C295.824 141.206 295.476 141.062 295.188 140.846C294.9 140.63 294.672 140.342 294.504 139.982C294.36 139.598 294.288 139.106 294.288 138.506V127.706C294.288 127.058 294.42 126.53 294.684 126.122C294.972 125.714 295.356 125.342 295.836 125.006C296.652 124.43 297.672 123.962 298.896 123.602C300.144 123.242 301.524 123.062 303.036 123.062C305.748 123.062 307.836 123.662 309.3 124.862C310.764 126.038 311.496 127.682 311.496 129.794V141.062C311.256 141.134 310.872 141.206 310.344 141.278C309.84 141.35 309.312 141.386 308.76 141.386C308.232 141.386 307.752 141.35 307.32 141.278C306.912 141.206 306.564 141.062 306.276 140.846C305.988 140.63 305.76 140.342 305.592 139.982C305.448 139.598 305.376 139.106 305.376 138.506V130.01ZM323.809 123.062C325.177 123.062 326.413 123.242 327.517 123.602C328.645 123.938 329.593 124.382 330.361 124.934C330.841 125.27 331.213 125.642 331.477 126.05C331.765 126.458 331.909 126.986 331.909 127.634V140.234C331.909 141.506 331.669 142.598 331.189 143.51C330.709 144.446 330.049 145.214 329.209 145.814C328.393 146.438 327.421 146.894 326.293 147.182C325.189 147.47 324.001 147.614 322.729 147.614C320.545 147.614 318.829 147.314 317.581 146.714C316.333 146.138 315.709 145.19 315.709 143.87C315.709 143.318 315.817 142.826 316.033 142.394C316.273 141.986 316.537 141.674 316.825 141.458C317.521 141.842 318.301 142.166 319.165 142.43C320.053 142.694 320.965 142.826 321.901 142.826C323.197 142.826 324.229 142.61 324.997 142.178C325.765 141.746 326.149 141.05 326.149 140.09V139.514C325.165 139.946 323.965 140.162 322.549 140.162C321.469 140.162 320.437 140.006 319.453 139.694C318.493 139.358 317.641 138.854 316.897 138.182C316.177 137.486 315.589 136.598 315.133 135.518C314.701 134.438 314.485 133.154 314.485 131.666C314.485 130.202 314.713 128.93 315.169 127.85C315.649 126.77 316.297 125.882 317.113 125.186C317.953 124.466 318.937 123.938 320.065 123.602C321.217 123.242 322.465 123.062 323.809 123.062ZM326.041 128.282C325.873 128.186 325.621 128.09 325.285 127.994C324.973 127.898 324.577 127.85 324.097 127.85C322.921 127.85 322.033 128.186 321.433 128.858C320.857 129.506 320.569 130.442 320.569 131.666C320.569 133.058 320.857 134.066 321.433 134.69C322.033 135.29 322.789 135.59 323.701 135.59C324.685 135.59 325.465 135.362 326.041 134.906V128.282Z" fill="#8294C4"/>
</svg>
